FFmpeg version SVN-r25716, Copyright (c) 2000-2010 the FFmpeg developers  built on Nov 10 2010 12:23:18 with gcc 4.1.2 20080704 (Red Hat 4.1.2-48)  configuration: --enable-libmp3lame --enable-shared --disable-mmx --arch=x86_64  libavutil     50.33. 0 / 50.33. 0  libavcore      0.12. 1 /  0.12. 1  libavcodec    52.94. 4 / 52.94. 4  libavformat   52.84. 0 / 52.84. 0  libavdevice   52. 2. 2 / 52. 2. 2  libavfilter    1.59. 0 /  1.59. 0  libswscale     0.12. 0 /  0.12. 0Seems stream 0 codec frame rate differs from container frame rate: 1200.00 (1200/1) -> 7.00 (7/1)Input #0, mov,mp4,m4a,3gp,3g2,mj2, from '/RAID10/data/converted_video_files/11989.mov':  Metadata:    major_brand     : qt      minor_version   : 537199360    compatible_brands: qt    Duration: 00:01:40.14, start: 0.000000, bitrate: 776 kb/s    Stream #0.0(eng): Video: h264, yuv420p, 452x226, 775 kb/s, 7 fps, 7 tbr, 600 tbn, 1200 tbc[buffer @ 0x10f6ebd0] w:452 h:226 pixfmt:yuv420pOutput #0, flv, to '/RAID10/data/converted_video_files/11989.flv':  Metadata:    encoder         : Lavf52.84.0    Stream #0.0(eng): Video: flv, yuv420p, 452x226, q=2-31, 600 kb/s, 1k tbn, 24 tbcStream mapping:  Stream #0.0 -> #0.0Press [q] to stop encodingframe=    5 fps=  0 q=2.2 size=     192kB time=0.62 bitrate=2524.8kbits/s    frame=   34 fps= 32 q=8.2 size=     342kB time=4.75 bitrate= 589.9kbits/s    frame=   61 fps= 39 q=6.2 size=     523kB time=8.62 bitrate= 496.4kbits/s    frame=   90 fps= 43 q=7.5 size=     771kB time=12.75 bitrate= 495.3kbits/s    frame=  122 fps= 47 q=6.8 size=    1059kB time=17.33 bitrate= 500.6kbits/s    frame=  157 fps= 50 q=5.0 size=    1337kB time=22.33 bitrate= 490.3kbits/s    frame=  192 fps= 52 q=6.4 size=    1649kB time=27.33 bitrate= 494.2kbits/s    frame=  224 fps= 54 q=6.5 size=    1971kB time=31.92 bitrate= 505.9kbits/s    frame=  260 fps= 56 q=5.9 size=    2322kB time=37.04 bitrate= 513.5kbits/s    frame=  297 fps= 57 q=5.4 size=    2691kB time=42.33 bitrate= 520.7kbits/s    frame=  333 fps= 58 q=5.4 size=    3053kB time=47.46 bitrate= 527.0kbits/s    frame=  373 fps= 59 q=4.5 size=    3482kB time=53.17 bitrate= 536.6kbits/s    frame=  413 fps= 61 q=5.2 size=    3918kB time=58.92 bitrate= 544.8kbits/s    frame=  457 fps= 62 q=4.2 size=    4384kB time=65.17 bitrate= 551.1kbits/s    frame=  500 fps= 64 q=5.6 size=    4831kB time=71.33 bitrate= 554.9kbits/s    frame=  544 fps= 65 q=5.7 size=    5323kB time=77.62 bitrate= 561.8kbits/s    frame=  589 fps= 66 q=4.5 size=    5790kB time=84.04 bitrate= 564.4kbits/s    frame=  637 fps= 68 q=4.3 size=    6294kB time=90.92 bitrate= 567.1kbits/s    frame=  685 fps= 69 q=4.3 size=    6545kB time=97.75 bitrate= 548.5kbits/s    frame=  701 fps= 70 q=5.4 Lsize=    6545kB time=100.04 bitrate= 535.9kbits/s    video:6534kB audio:0kB global headers:0kB muxing overhead 0.170780%